<svg id="SVGRepo_iconCarrier" xmlns="http://www.w3.org/2000/svg" width="95.332" height="95.333" viewBox="0 0 95.332 95.333">
  <g id="Group_1" data-name="Group 1">
    <path id="Path_1" data-name="Path 1" d="M93.333,0H2A2,2,0,0,0,0,2V93.332a2,2,0,0,0,2,2H50.525V63.477H40.284a1.6,1.6,0,0,1-1.6-1.6V48.961a1.6,1.6,0,0,1,1.6-1.6H50.526V38.445c0-11.744,7.4-19.332,18.839-19.332l10.188.016a1.6,1.6,0,0,1,1.6,1.6V32.722a1.6,1.6,0,0,1-1.6,1.6l-6.863,0c-4.729,0-5.6,1.844-5.6,5.475v7.556H79.072a1.6,1.6,0,0,1,1.6,1.6l0,12.915a1.6,1.6,0,0,1-1.6,1.6H67.092V95.333h26.24a2,2,0,0,0,2-2V2A2,2,0,0,0,93.333,0Z" fill="#fff"/>
  </g>
</svg>
