<svg id="SVGRepo_iconCarrier" xmlns="http://www.w3.org/2000/svg" width="95.332" height="95.332" viewBox="0 0 95.332 95.332">
  <path id="Path_3" data-name="Path 3" d="M32,58A26,26,0,1,0,6,32,26,26,0,0,0,32,58Zm0-8.667A17.333,17.333,0,1,0,14.667,32,17.333,17.333,0,0,0,32,49.333Z" transform="translate(15.666 15.666)" fill="#fff" stroke="#fff" stroke-width="1" fill-rule="evenodd"/>
  <path id="Path_4" data-name="Path 4" d="M21.333,5a4.333,4.333,0,1,0,4.333,4.333A4.333,4.333,0,0,0,21.333,5Z" transform="translate(52.332 12.333)" fill="#fff" stroke="#fff" stroke-width="1"/>
  <g id="Path_5" data-name="Path 5" transform="translate(-1 -1)" fill="#fff" stroke-linecap="round" stroke-linejoin="bevel" fill-rule="evenodd">
    <path d="M 54.73260879516602 95.83204650878906 L 42.59943008422852 95.83204650878906 C 28.13700675964355 95.83204650878906 20.87774467468262 95.83204650878906 15.42308235168457 93.05258178710938 C 13.03524398803711 91.83600616455078 10.86366939544678 90.25830841064453 8.968669891357422 88.36329650878906 C 7.073707103729248 86.46830749511719 5.495969295501709 84.29670715332031 4.279294490814209 81.90880584716797 C 1.500006914138794 76.45442199707031 1.500006914138794 69.19510650634766 1.500006914138794 54.73260879516602 L 1.500006914138794 42.59943008422852 C 1.500006914138794 28.13700675964355 1.500006914138794 20.87773132324219 4.279294490814209 15.42306900024414 C 5.495956897735596 13.03521919250488 7.073681831359863 10.86364459991455 8.968669891357422 8.968669891357422 C 10.86364459991455 7.073681831359863 13.03521919250488 5.495956897735596 15.42306900024414 4.279294490814209 C 20.87773132324219 1.500006914138794 28.13700675964355 1.500006914138794 42.59943008422852 1.500006914138794 L 54.73260879516602 1.500006914138794 C 69.19510650634766 1.500006914138794 76.45442199707031 1.500006914138794 81.90879821777344 4.279294490814209 C 84.29670715332031 5.495969295501709 86.46830749511719 7.073707103729248 88.36329650878906 8.968669891357422 C 90.25830841064453 10.86366939544678 91.83600616455078 13.03524398803711 93.05256652832031 15.42305660247803 C 95.83204650878906 20.87774467468262 95.83204650878906 28.13700675964355 95.83204650878906 42.59943008422852 L 95.83204650878906 54.73260879516602 C 95.83204650878906 69.19510650634766 95.83204650878906 76.45442199707031 93.05259704589844 81.90878295898438 C 91.83599090576172 84.29669189453125 90.25829315185547 86.46829223632812 88.36329650878906 88.36329650878906 C 86.46829223632812 90.25829315185547 84.29669189453125 91.83599090576172 81.90882110595703 93.05256652832031 C 76.45442199707031 95.83204650878906 69.19510650634766 95.83204650878906 54.73260879516602 95.83204650878906 Z M 42.59943008422852 9.166557312011719 C 35.3961067199707 9.166557312011719 30.19159507751465 9.166557312011719 26.18795776367188 9.493644714355469 C 22.80135726928711 9.770332336425781 20.55476951599121 10.26890659332275 18.90359497070312 11.11023235321045 C 15.52608203887939 12.83118152618408 12.83118152618408 15.52608203887939 11.11023235321045 18.90359497070312 C 10.26890659332275 20.55476951599121 9.770332336425781 22.80135726928711 9.493644714355469 26.18795776367188 C 9.166557312011719 30.19159507751465 9.166557312011719 35.3961067199707 9.166557312011719 42.59943008422852 L 9.166557312011719 54.73260879516602 C 9.166557312011719 61.93580627441406 9.166557312011719 67.14022827148438 9.493644714355469 71.14399719238281 C 9.770332336425781 74.53076934814453 10.26890659332275 76.77743530273438 11.11023235321045 78.42861938476562 C 12.83120727539062 81.80594635009766 15.52610683441162 84.500732421875 18.90359497070312 86.2216796875 C 20.55508232116699 87.06327056884766 22.80168151855469 87.56188201904297 26.1879825592041 87.83839416503906 C 30.19394493103027 88.16549682617188 35.39746856689453 88.16549682617188 42.59943008422852 88.16549682617188 L 54.73260879516602 88.16549682617188 C 61.93444442749023 88.16549682617188 67.13787841796875 88.16549682617188 71.14396667480469 87.83839416503906 C 74.53044128417969 87.56189727783203 76.77712249755859 87.06327056884766 78.42863464355469 86.22167205810547 C 81.80593109130859 84.50071716308594 84.50071716308594 81.80593109130859 86.2216796875 78.42863464355469 C 87.06327056884766 76.77712249755859 87.56189727783203 74.53044128417969 87.83839416503906 71.14396667480469 C 88.16549682617188 67.13787841796875 88.16549682617188 61.93444442749023 88.16549682617188 54.73260879516602 L 88.16549682617188 42.59943008422852 C 88.16549682617188 35.39746856689453 88.16549682617188 30.19394493103027 87.83839416503906 26.1879825592041 C 87.56188201904297 22.80168151855469 87.06327056884766 20.55508232116699 86.22167205810547 18.9035816192627 C 84.500732421875 15.52610683441162 81.80594635009766 12.83120727539062 78.42863464355469 11.11023235321045 C 76.77743530273438 10.26890659332275 74.53076934814453 9.770332336425781 71.14399719238281 9.493644714355469 C 67.14022827148438 9.166557312011719 61.93580627441406 9.166557312011719 54.73260879516602 9.166557312011719 L 42.59943008422852 9.166557312011719 Z" stroke="none"/>
    <path d="M 42.59943008422852 1.999992370605469 C 28.21693420410156 1.999992370605469 20.99777221679688 1.999992370605469 15.65005493164062 4.72479248046875 C 13.30902862548828 5.917594909667969 11.18004608154297 7.464378356933594 9.322219848632812 9.322219848632812 C 7.464378356933594 11.18004608154297 5.917594909667969 13.30902862548828 4.72479248046875 15.65005493164062 C 1.999992370605469 20.99777221679688 1.999992370605469 28.21693420410156 1.999992370605469 42.59943008422852 L 1.999992370605469 54.73260879516602 C 1.999992370605469 69.11518096923828 1.999992370605469 76.33438110351562 4.72479248046875 81.68180847167969 C 5.917610168457031 84.02289581298828 7.464408874511719 86.15191650390625 9.322219848632812 88.00974273681641 C 11.1800537109375 89.86759185791016 13.30904388427734 91.41436004638672 15.65008544921875 92.60707855224609 C 20.99777984619141 95.33203125 28.21693420410156 95.33203125 42.59943008422852 95.33203125 L 54.73260879516602 95.33203125 C 69.11518096923828 95.33203125 76.33436584472656 95.33203125 81.68183135986328 92.6070556640625 C 84.02288055419922 91.41434478759766 86.15189361572266 89.86758422851562 88.00973510742188 88.00973510742188 C 89.86758422851562 86.15189361572266 91.41434478759766 84.02288055419922 92.60709381103516 81.68177032470703 C 95.33203125 76.33436584472656 95.33203125 69.11518096923828 95.33203125 54.73260879516602 L 95.33203125 42.59943008422852 C 95.33203125 28.21693420410156 95.33203125 20.99777984619141 92.6070556640625 15.65003204345703 C 91.41436004638672 13.30904388427734 89.86759185791016 11.1800537109375 88.00974273681641 9.322219848632812 C 86.15191650390625 7.464408874511719 84.02289581298828 5.917610168457031 81.68177795410156 4.724784851074219 C 76.33438110351562 1.999992370605469 69.11518096923828 1.999992370605469 54.73260879516602 1.999992370605469 L 42.59943008422852 1.999992370605469 M 54.73260879516602 88.66548156738281 L 42.59943008422852 88.66548156738281 C 35.38555526733398 88.66548156738281 30.17340850830078 88.66548156738281 26.14728546142578 88.33674621582031 C 22.69290924072266 88.05467224121094 20.38884735107422 87.53974151611328 18.67660522460938 86.66716766357422 C 15.20440673828125 84.89799499511719 12.4339599609375 82.12764739990234 10.66471862792969 78.65560913085938 C 9.792404174804688 76.94361877441406 9.277542114257812 74.63951110839844 8.995307922363281 71.18470764160156 C 8.666542053222656 67.16046905517578 8.666542053222656 61.94755554199219 8.666542053222656 54.73260879516602 L 8.666542053222656 42.59943008422852 C 8.666542053222656 35.38435745239258 8.666542053222656 30.17135620117188 8.995307922363281 26.14724731445312 C 9.277542114257812 22.69260406494141 9.792404174804688 20.38857269287109 10.66471862792969 18.67659759521484 C 12.43392181396484 15.20438385009766 15.20438385009766 12.43392181396484 18.67659759521484 10.66471862792969 C 20.38857269287109 9.792404174804688 22.69260406494141 9.277542114257812 26.14724731445312 8.995307922363281 C 30.17135620117188 8.666542053222656 35.38435745239258 8.666542053222656 42.59943008422852 8.666542053222656 L 54.73260879516602 8.666542053222656 C 61.94755554199219 8.666542053222656 67.16046905517578 8.666542053222656 71.18470764160156 8.995307922363281 C 74.63951110839844 9.277542114257812 76.94361877441406 9.792404174804688 78.65563201904297 10.66473388671875 C 82.12764739990234 12.4339599609375 84.89799499511719 15.20440673828125 86.66714477539062 18.67654418945312 C 87.53974151611328 20.38884735107422 88.05467224121094 22.69290924072266 88.33674621582031 26.14728546142578 C 88.66548156738281 30.17340850830078 88.66548156738281 35.38555526733398 88.66548156738281 42.59943008422852 L 88.66548156738281 54.73260879516602 C 88.66548156738281 61.94635772705078 88.66548156738281 67.15840911865234 88.33674621582031 71.18465423583984 C 88.05467224121094 74.63919067382812 87.53975677490234 76.94332885742188 86.66716003417969 78.65561676025391 C 84.89795684814453 82.12761688232422 82.12761688232422 84.89795684814453 78.65565490722656 86.66714477539062 C 76.94332885742188 87.53975677490234 74.63919067382812 88.05467224121094 71.18465423583984 88.33674621582031 C 67.15840911865234 88.66548156738281 61.94635772705078 88.66548156738281 54.73260879516602 88.66548156738281 M 42.59943008422852 0.9999923706054688 L 54.73260879516602 0.9999923706054688 C 69.29369354248047 0.9999923706054688 76.57447052001953 0.9999923706054688 82.13579559326172 3.833778381347656 C 87.02806091308594 6.326454162597656 91.00556945800781 10.30387878417969 93.49808502197266 15.19606781005859 C 96.33203125 20.75769805908203 96.33203125 28.03829193115234 96.33203125 42.59943008422852 L 96.33203125 54.73260879516602 C 96.33203125 69.29369354248047 96.33203125 76.57447052001953 93.49808502197266 82.13579559326172 C 91.00556945800781 87.02806091308594 87.02806091308594 91.00556945800781 82.13579559326172 93.49808502197266 C 76.57447052001953 96.33203125 69.29369354248047 96.33203125 54.73260879516602 96.33203125 L 42.59943008422852 96.33203125 C 28.03829193115234 96.33203125 20.75769805908203 96.33203125 15.19606781005859 93.49808502197266 C 10.30387878417969 91.00556945800781 6.326454162597656 87.02806091308594 3.833778381347656 82.13579559326172 C 0.9999923706054688 76.57447052001953 0.9999923706054688 69.29369354248047 0.9999923706054688 54.73260879516602 L 0.9999923706054688 42.59943008422852 C 0.9999923706054688 28.03829193115234 0.9999923706054688 20.75769805908203 3.833778381347656 15.19606781005859 C 6.326454162597656 10.30387878417969 10.30387878417969 6.326454162597656 15.19606781005859 3.833778381347656 C 20.75769805908203 0.9999923706054688 28.03829193115234 0.9999923706054688 42.59943008422852 0.9999923706054688 Z M 54.73260879516602 87.66548156738281 C 62.15636825561523 87.66548156738281 67.20246887207031 87.65855407714844 71.10327911376953 87.34005737304688 C 74.90312957763672 87.02979278564453 76.84616851806641 86.46690368652344 78.20160675048828 85.77616882324219 C 81.46282958984375 84.11437225341797 84.11437225341797 81.46282958984375 85.77616882324219 78.20160675048828 C 86.46690368652344 76.84616851806641 87.02979278564453 74.90312957763672 87.34005737304688 71.10327911376953 C 87.65855407714844 67.20246887207031 87.66548156738281 62.15636825561523 87.66548156738281 54.73260879516602 L 87.66548156738281 42.59943008422852 C 87.66548156738281 35.17584609985352 87.65855407714844 30.12935638427734 87.34005737304688 26.22866821289062 C 87.02979278564453 22.42908477783203 86.46690368652344 20.48603057861328 85.77616882324219 19.13059234619141 C 84.11437225341797 15.86915588378906 81.46282958984375 13.217529296875 78.20160675048828 11.55571746826172 C 76.84616851806641 10.86508178710938 74.90312957763672 10.30240631103516 71.10327911376953 9.991981506347656 C 67.20246887207031 9.673309326171875 62.15636825561523 9.666542053222656 54.73260879516602 9.666542053222656 L 42.59943008422852 9.666542053222656 C 35.17584609985352 9.666542053222656 30.12935638427734 9.673309326171875 26.22866821289062 9.991981506347656 C 22.42908477783203 10.30240631103516 20.48603057861328 10.86508178710938 19.13059234619141 11.55571746826172 C 15.86915588378906 13.217529296875 13.217529296875 15.86915588378906 11.55571746826172 19.13059234619141 C 10.86508178710938 20.48603057861328 10.30240631103516 22.42908477783203 9.991981506347656 26.22866821289062 C 9.673309326171875 30.12935638427734 9.666542053222656 35.17584609985352 9.666542053222656 42.59943008422852 L 9.666542053222656 54.73260879516602 C 9.666542053222656 62.15636825561523 9.673309326171875 67.20246887207031 9.991981506347656 71.10327911376953 C 10.30240631103516 74.90312957763672 10.86508178710938 76.84616851806641 11.55571746826172 78.20160675048828 C 13.217529296875 81.46282958984375 15.86915588378906 84.11437225341797 19.13059234619141 85.77616882324219 C 20.48603057861328 86.46690368652344 22.42908477783203 87.02979278564453 26.22866821289062 87.34005737304688 C 30.12935638427734 87.65855407714844 35.17584609985352 87.66548156738281 42.59943008422852 87.66548156738281 L 54.73260879516602 87.66548156738281 Z" stroke="none" fill="#fff"/>
  </g>
</svg>
